<svg version="1.1" viewBox="0.0 0.0 960.0 540.0" fill="none" stroke="none" stroke-linecap="square" stroke-miterlimit="10" xmlns:xlink="http://www.w3.org/1999/xlink" xmlns="http://www.w3.org/2000/svg"><clipPath id="p.0"><path d="m0 0l960.0 0l0 540.0l-960.0 0l0 -540.0z" clip-rule="nonzero"/></clipPath><g clip-path="url(#p.0)"><path fill="#ffffff" d="m0 0l960.0 0l0 540.0l-960.0 0z" fill-rule="evenodd"/><path fill="#ec641f" d="m205.6745 238.14226l-0.3187561 59.729874l549.2849 0l-0.3187256 -59.729874z" fill-rule="evenodd"/><path fill="#ef7945" d="m486.01044 32.463036c-2.459076 0 -4.918152 0.75380325 -6.8307495 2.2614098l-59.38217 46.556286l-45.447388 35.859467l223.32065 0l-104.87509 -82.41576c-1.9126282 -1.5076065 -4.371704 -2.2614098 -6.785248 -2.2614098z" fill-rule="evenodd"/><path fill="#ef7945" d="m419.79752 81.28044l-45.447388 35.859474l223.32065 0l-45.49292 -35.859474z" fill-rule="evenodd"/><path fill="#eeeded" d="m711.88025 104.89945c-0.1821289 0 -0.3187256 0.0358963 -0.5009155 0.0358963l-462.76184 0c-5.373535 0 -9.7907715 3.2305832 -9.7907715 7.4662323l0 348.3286l482.34338 0l0 -348.3286c0 -4.0920715 -4.143982 -7.5021286 -9.289856 -7.5021286z" fill-rule="evenodd"/><path fill="#b2b1b1" d="m687.6569 104.68408l0 356.0461l33.516296 0l0 -348.3286c0 -4.2356567 -4.4627686 -7.7175064 -9.7907715 -7.7175064z" fill-rule="evenodd"/><path fill="#ec641f" d="m321.25183 294.38995c-12.29538 0 -12.29538 14.46582 0 14.46582l317.4486 0c12.340942 0 12.340942 -14.46582 0 -14.46582z" fill-rule="evenodd"/><path fill="#ec641f" d="m379.99686 325.2598c-12.29538 0 -12.29538 14.46582 0 14.46582l200.59695 0c12.295349 0 12.295349 -14.46582 0 -14.46582z" fill-rule="evenodd"/><path fill="#ec641f" d="m430.22614 355.87836c-12.29538 0 -12.29538 14.46582 0 14.46582l96.67816 0c12.295349 0 12.295349 -14.46582 0 -14.46582z" fill-rule="evenodd"/><path fill="#f39777" d="m206.312 238.03456c-4.0529175 0 -7.923691 2.5844727 -7.923691 6.3175964l0 255.4673c0 4.199768 4.4172363 7.717499 9.7907715 7.717499l543.5926 0c5.373535 0 9.7907715 -3.5177307 9.7907715 -7.717499l0 -255.4673c0 -3.5895386 -3.961853 -6.174011 -8.060303 -6.174011c-1.593811 0 -3.1421509 0.358963 -4.553833 1.184555l-17.39569 9.978912l-247.00061 139.4176c-1.4117126 0.7537842 -3.0055542 1.1127319 -4.5538635 1.1127319c-1.5938416 0 -3.187683 -0.35894775 -4.599365 -1.1127319l-264.35077 -149.39651c-1.4572296 -0.89738464 -3.0966034 -1.3281403 -4.7359924 -1.3281403z" fill-rule="evenodd"/><path fill="#ef7945" d="m753.50586 238.17815c-1.5938721 0 -3.1421509 0.35894775 -4.553833 1.184555l-17.39569 9.727631l0 258.44662l20.219055 0c5.373535 0 9.7907715 -3.5177307 9.7907715 -7.717499l0 -255.4673c0 -3.5895386 -3.961853 -6.174011 -8.060303 -6.174011z" fill-rule="evenodd"/><path fill="#ec641f" d="m312.09857 157.19868c-5.054779 0 -8.834473 3.2664795 -8.834473 6.9996033l0 30.618744c0 3.9843903 3.7796936 6.9636993 8.834473 6.9636993l38.8443 0c5.054779 0 8.880005 -2.979309 8.880005 -6.9636993l0 -30.618744c0 -3.7331238 -3.8252258 -6.9996033 -8.880005 -6.9996033z" fill-rule="evenodd"/><path fill="#ec641f" d="m408.77737 149.98376c-12.340912 0 -12.340912 14.465836 0 14.465836l38.8443 0c11.976624 0 11.976624 -14.465836 0 -14.465836z" fill-rule="evenodd"/><path fill="#ec641f" d="m408.77737 188.31978c-12.340912 0 -12.340912 14.465836 0 14.465836l171.81662 0c12.295349 0 12.295349 -14.465836 0 -14.465836z" fill-rule="evenodd"/><path fill="#ec641f" d="m325.39587 248.58774c-12.340942 0 -12.340942 14.429932 0 14.429932l96.31384 0c12.340912 0 12.340912 -14.429932 0 -14.429932z" fill-rule="evenodd"/><path fill="#f3f5f7" d="m419.13443 441.27213c-10.507416 0 -10.507416 10.038483 0 10.038483l63.705933 0c10.546295 0 10.546295 -10.038483 0 -10.038483z" fill-rule="evenodd"/></g></svg>