<svg version="1.1" viewBox="0.0 0.0 100.0 100.0" fill="none" stroke="none" stroke-linecap="square" stroke-miterlimit="10" xmlns:xlink="http://www.w3.org/1999/xlink" xmlns="http://www.w3.org/2000/svg"><clipPath id="p.0"><path d="m0 0l100.0 0l0 100.0l-100.0 0l0 -100.0z" clip-rule="nonzero"/></clipPath><g clip-path="url(#p.0)"><path fill="#000000" fill-opacity="0.0" d="m0 0l100.0 0l0 100.0l-100.0 0z" fill-rule="evenodd"/><path fill="#ec641f" d="m0.24821545 6.2362375l-0.010255054 1.810296l17.670933 0l-0.010255814 -1.810296z" fill-rule="evenodd"/><path fill="#ef7945" d="m9.266846 0.0025031713c-0.079110146 0 -0.15822124 0.022846282 -0.21975136 0.068538845l-1.9103713 1.4110299l-1.4620781 1.0868303l7.184402 0l-3.3739147 -2.4978602c-0.061531067 -0.045692563 -0.14064121 -0.068538845 -0.21828651 -0.068538845z" fill-rule="evenodd"/><path fill="#ef7945" d="m7.136723 1.4820632l-1.4620781 1.0868303l7.184402 0l-1.4635439 -1.0868303z" fill-rule="evenodd"/><path fill="#eeeded" d="m16.533258 2.197909c-0.0058612823 0 -0.010255814 0.001087904 -0.016115189 0.001087904l-14.887417 0c-0.172871 0 -0.3149768 0.09791255 -0.3149768 0.22628689l0 10.5571575l15.51737 0l0 -10.5571575c0 -0.124022484 -0.13331604 -0.22737479 -0.29886055 -0.22737479z" fill-rule="evenodd"/><path fill="#b2b1b1" d="m15.753973 2.1913817l0 10.791061l1.0782471 0l0 -10.557158c0 -0.12837434 -0.14357185 -0.23390245 -0.31497765 -0.23390245z" fill-rule="evenodd"/><path fill="#ec641f" d="m3.9664302 7.940995c-0.39555216 0 -0.39555216 0.4384308 0 0.4384308l10.212574 0c0.39701748 0 0.39701748 -0.4384308 0 -0.4384308z" fill-rule="evenodd"/><path fill="#ec641f" d="m5.856304 8.876599c-0.39555216 0 -0.39555216 0.4384308 0 0.4384308l6.4533625 0c0.39555264 0 0.39555264 -0.4384308 0 -0.4384308z" fill-rule="evenodd"/><path fill="#ec641f" d="m7.47222 9.804588c-0.39555216 0 -0.39555216 0.4384308 0 0.4384308l3.1102128 0c0.39555264 0 0.39555264 -0.4384308 0 -0.4384308z" fill-rule="evenodd"/><path fill="#f39777" d="m0.26872405 6.2329736c-0.13038577 0 -0.25491148 0.07833052 -0.25491148 0.19147396l0 7.7427135c0 0.12728691 0.14210583 0.23390293 0.3149768 0.23390293l17.487806 0c0.17287254 0 0.31497765 -0.10661602 0.31497765 -0.23390293l0 -7.7427135c0 -0.10879183 -0.12745667 -0.18712187 -0.25930595 -0.18712187c-0.051275253 0 -0.10108566 0.01087904 -0.14650154 0.03590107l-0.55963326 0.30244112l-7.946206 4.225475c-0.045414925 0.022846222 -0.09669018 0.033724785 -0.14650059 0.033724785c-0.051275253 0 -0.10255051 -0.010878563 -0.14796638 -0.033724785l-8.504374 -4.527916c-0.046880275 -0.027197838 -0.09962058 -0.040253162 -0.15236089 -0.040253162z" fill-rule="evenodd"/><path fill="#ef7945" d="m17.872385 6.237325c-0.051275253 0 -0.10108566 0.010879517 -0.14649963 0.035901546l-0.55963326 0.29482603l0 7.833011l0.6504631 0c0.17287064 0 0.31497765 -0.10661602 0.31497765 -0.23390293l0 -7.7427135c0 -0.10879183 -0.12745667 -0.18712234 -0.25930786 -0.18712234z" fill-rule="evenodd"/><path fill="#ec641f" d="m3.6719623 3.7829964c-0.16261601 0 -0.28421164 0.09900069 -0.28421164 0.21214414l0 0.92799425c0 0.12075901 0.12159562 0.21105623 0.28421164 0.21105623l1.2496524 0c0.16261578 0 0.28567648 -0.09029722 0.28567648 -0.21105623l0 -0.92799425c0 -0.113143444 -0.1230607 -0.21214414 -0.28567648 -0.21214414z" fill-rule="evenodd"/><path fill="#ec641f" d="m6.782196 3.5643263c-0.397017 0 -0.397017 0.4384308 0 0.4384308l1.2496519 0c0.38529778 0 0.38529778 -0.4384308 0 -0.4384308z" fill-rule="evenodd"/><path fill="#ec641f" d="m6.782196 4.726216c-0.397017 0 -0.397017 0.43843126 0 0.43843126l5.5274773 0c0.39555264 0 0.39555264 -0.43843126 0 -0.43843126z" fill-rule="evenodd"/><path fill="#ec641f" d="m4.0997467 6.5528197c-0.397017 0 -0.397017 0.43734312 0 0.43734312l3.098493 0c0.39701748 0 0.39701748 -0.43734312 0 -0.43734312z" fill-rule="evenodd"/></g></svg>