<svg version="1.1" viewBox="0.0 0.0 563.5249343832021 475.68241469816275" fill="none" stroke="none" stroke-linecap="square" stroke-miterlimit="10" xmlns:xlink="http://www.w3.org/1999/xlink" xmlns="http://www.w3.org/2000/svg"><clipPath id="p.0"><path d="m0 0l563.52496 0l0 475.6824l-563.52496 0l0 -475.6824z" clip-rule="nonzero"/></clipPath><g clip-path="url(#p.0)"><path fill="#000000" fill-opacity="0.0" d="m0 0l563.52496 0l0 475.6824l-563.52496 0z" fill-rule="evenodd"/><path fill="#ec641f" d="m7.286054 205.68031l-0.31876945 59.729874l549.2849 0l-0.31878662 -59.729874z" fill-rule="evenodd"/><path fill="#ef7945" d="m287.622 0.0010949027c-2.4591064 0 -4.9181824 0.75380266 -6.83078 2.261408l-59.382156 46.556286l-45.447388 35.85947l223.3206 0l-104.87506 -82.41576c-1.9126282 -1.5076053 -4.371704 -2.261408 -6.7852173 -2.261408z" fill-rule="evenodd"/><path fill="#ef7945" d="m221.40907 48.8185l-45.447388 35.85947l223.3206 0l-45.49292 -35.85947z" fill-rule="evenodd"/><path fill="#eeeded" d="m513.4918 72.43751c-0.1821289 0 -0.31878662 0.0358963 -0.5009155 0.0358963l-462.76184 0c-5.373539 0 -9.7907715 3.2305832 -9.7907715 7.46624l0 348.3286l482.34338 0l0 -348.3286c0 -4.0920715 -4.143982 -7.502136 -9.289856 -7.502136z" fill-rule="evenodd"/><path fill="#b2b1b1" d="m489.2685 72.22214l0 356.0461l33.516296 0l0 -348.3286c0 -4.2356567 -4.4627686 -7.7175064 -9.7907715 -7.7175064z" fill-rule="evenodd"/><path fill="#ec641f" d="m122.86339 261.928c-12.295387 0 -12.295387 14.46582 0 14.46582l317.4486 0c12.340912 0 12.340912 -14.46582 0 -14.46582z" fill-rule="evenodd"/><path fill="#ec641f" d="m181.60841 292.79785c-12.29538 0 -12.29538 14.46582 0 14.46582l200.59691 0c12.29538 0 12.29538 -14.46582 0 -14.46582z" fill-rule="evenodd"/><path fill="#ec641f" d="m231.83768 323.4164c-12.29538 0 -12.29538 14.46582 0 14.46582l96.67816 0c12.29538 0 12.29538 -14.46582 0 -14.46582z" fill-rule="evenodd"/><path fill="#f39777" d="m7.923545 205.57263c-4.052923 0 -7.923692 2.5844574 -7.923692 6.317581l0 255.4673c0 4.199768 4.417231 7.717499 9.790769 7.717499l543.5926 0c5.373535 0 9.7907715 -3.5177307 9.7907715 -7.717499l0 -255.4673c0 -3.5895386 -3.961853 -6.174011 -8.060303 -6.174011c-1.5938721 0 -3.1421509 0.358963 -4.553833 1.184555l-17.395752 9.978912l-247.00058 139.4176c-1.4116821 0.7537842 -3.0055542 1.1127319 -4.5538635 1.1127319c-1.5938416 0 -3.187683 -0.35894775 -4.599365 -1.1127319l-264.35077 -149.39651c-1.4572306 -0.89738464 -3.0966158 -1.328125 -4.736 -1.328125z" fill-rule="evenodd"/><path fill="#ef7945" d="m555.1174 205.7162c-1.593811 0 -3.1421509 0.358963 -4.553833 1.184555l-17.39569 9.727646l0 258.4466l20.219116 0c5.373535 0 9.7907715 -3.5177307 9.7907715 -7.717499l0 -255.4673c0 -3.5895386 -3.961853 -6.174011 -8.060364 -6.174011z" fill-rule="evenodd"/><path fill="#ec641f" d="m113.71012 124.73675c-5.0547714 0 -8.834465 3.2664719 -8.834465 6.9995956l0 30.618744c0 3.9843903 3.7796936 6.9636993 8.834465 6.9636993l38.844307 0c5.054764 0 8.880005 -2.979309 8.880005 -6.9636993l0 -30.618744c0 -3.7331238 -3.825241 -6.9995956 -8.880005 -6.9995956z" fill-rule="evenodd"/><path fill="#ec641f" d="m210.38892 117.52182c-12.340927 0 -12.340927 14.465836 0 14.465836l38.844315 0c11.976608 0 11.976608 -14.465836 0 -14.465836z" fill-rule="evenodd"/><path fill="#ec641f" d="m210.38892 155.85783c-12.340927 0 -12.340927 14.465836 0 14.465836l171.81662 0c12.29538 0 12.29538 -14.465836 0 -14.465836z" fill-rule="evenodd"/><path fill="#ec641f" d="m127.007416 216.1258c-12.3409195 0 -12.3409195 14.429947 0 14.429947l96.31384 0c12.340927 0 12.340927 -14.429947 0 -14.429947z" fill-rule="evenodd"/></g></svg>