<svg version="1.1" viewBox="0.0 0.0 116.5774278215223 100.0" fill="none" stroke="none" stroke-linecap="square" stroke-miterlimit="10" xmlns:xlink="http://www.w3.org/1999/xlink" xmlns="http://www.w3.org/2000/svg"><clipPath id="p.0"><path d="m0 0l116.57743 0l0 100.0l-116.57743 0l0 -100.0z" clip-rule="nonzero"/></clipPath><g clip-path="url(#p.0)"><path fill="#000000" fill-opacity="0.0" d="m0 0l116.57743 0l0 100.0l-116.57743 0z" fill-rule="evenodd"/><path fill="#ec641f" d="m1.5006279 43.299866l-0.06592536 12.573284l113.598854 0l-0.0659256 -12.573284z" fill-rule="evenodd"/><path fill="#ef7945" d="m59.477535 0.0039034c-0.5085678 0 -1.0171318 0.15867725 -1.4126854 0.47603175l-12.280956 9.80021l-9.399078 7.548503l46.185444 0l-21.689453 -17.348713c-0.3955536 -0.3173545 -0.9041214 -0.47603175 -1.4032707 -0.47603175z" fill-rule="evenodd"/><path fill="#ef7945" d="m45.783894 10.280084l-9.399078 7.548503l46.185444 0l-9.408501 -7.548503z" fill-rule="evenodd"/><path fill="#eeeded" d="m106.190186 15.251941c-0.03767395 0 -0.0659256 0.0075559616 -0.10359955 0.0075559616l-95.70482 0c-1.1113138 0 -2.0248508 0.6800461 -2.0248508 1.571661l0 73.324005l99.75452 0l0 -73.324005c0 -0.86139107 -0.85702515 -1.579217 -1.9212494 -1.579217z" fill-rule="evenodd"/><path fill="#b2b1b1" d="m101.180504 15.206605l0 74.948555l6.9315796 0l0 -73.324005c0 -0.8916149 -0.9229584 -1.6245527 -2.024849 -1.6245527z" fill-rule="evenodd"/><path fill="#ec641f" d="m25.403437 55.14014c-2.5428352 0 -2.5428352 3.0450935 0 3.0450935l65.65227 0c2.5522537 0 2.5522537 -3.0450935 0 -3.0450935z" fill-rule="evenodd"/><path fill="#ec641f" d="m37.552628 61.638313c-2.5428352 0 -2.5428352 3.0450974 0 3.0450974l41.4859 0c2.542839 0 2.542839 -3.0450974 0 -3.0450974z" fill-rule="evenodd"/><path fill="#ec641f" d="m47.94066 68.083595c-2.542839 0 -2.542839 3.0450897 0 3.0450897l19.994225 0c2.542839 0 2.542839 -3.0450897 0 -3.0450897z" fill-rule="evenodd"/><path fill="#f39777" d="m1.6324688 43.2772c-0.8381942 0 -1.6387167 0.54403687 -1.6387167 1.3298683l0 53.776478c0 0.8840561 0.9135375 1.6245499 2.0248508 1.6245499l112.421616 0c1.1113129 0 2.024849 -0.7404938 2.024849 -1.6245499l0 -53.776478c0 -0.7556076 -0.8193588 -1.2996445 -1.6669693 -1.2996445c-0.329628 0 -0.6498337 0.07556152 -0.9417877 0.2493515l-3.597641 2.1005821l-51.082756 29.34774c-0.29195786 0.15867615 -0.62158203 0.23423767 -0.94179153 0.23423767c-0.329628 0 -0.659256 -0.07556152 -0.95121 -0.23423767l-54.67098 -31.448322c-0.301373 -0.18890381 -0.64041793 -0.27957535 -0.97946274 -0.27957535z" fill-rule="evenodd"/><path fill="#ef7945" d="m114.79887 43.307423c-0.329628 0 -0.6498413 0.07556152 -0.94179535 0.2493515l-3.597641 2.0476913l0 54.40363l4.1815567 0c1.1113129 0 2.024849 -0.7404938 2.024849 -1.6245499l0 -53.776478c0 -0.7556076 -0.8193588 -1.2996445 -1.6669693 -1.2996445z" fill-rule="evenodd"/><path fill="#ec641f" d="m23.51043 26.261055c-1.0453892 0 -1.827076 0.6876011 -1.827076 1.4734306l0 6.44532c0 0.8387222 0.7816868 1.4658737 1.827076 1.4658737l8.033478 0c1.0453873 0 1.8364944 -0.6271515 1.8364944 -1.4658737l0 -6.44532c0 -0.78582954 -0.7911072 -1.4734306 -1.8364944 -1.4734306z" fill-rule="evenodd"/><path fill="#ec641f" d="m43.50479 24.742296c-2.5522575 0 -2.5522575 3.0450916 0 3.0450916l8.033478 0c2.4769096 0 2.4769096 -3.0450916 0 -3.0450916z" fill-rule="evenodd"/><path fill="#ec641f" d="m43.50479 32.81212c-2.5522575 0 -2.5522575 3.0450935 0 3.0450935l35.533783 0c2.5428314 0 2.5428314 -3.0450935 0 -3.0450935z" fill-rule="evenodd"/><path fill="#ec641f" d="m26.260473 45.49867c-2.5522537 0 -2.5522537 3.0375366 0 3.0375366l19.918882 0c2.5522537 0 2.5522537 -3.0375366 0 -3.0375366z" fill-rule="evenodd"/></g></svg>