<svg version="1.1" viewBox="0.0 0.0 960.0 540.0" fill="none" stroke="none" stroke-linecap="square" stroke-miterlimit="10" xmlns:xlink="http://www.w3.org/1999/xlink" xmlns="http://www.w3.org/2000/svg"><clipPath id="g3275d8d4e46_0_16.0"><path d="m0 0l960.0 0l0 540.0l-960.0 0l0 -540.0z" clip-rule="nonzero"/></clipPath><g clip-path="url(#g3275d8d4e46_0_16.0)"><path fill="#ffffff" d="m0 0l960.0 0l0 540.0l-960.0 0z" fill-rule="evenodd"/><path fill="#e95b0d" d="m488.26874 43.22858c-122.961426 0 -223.07407 101.72987 -223.07407 226.67767c0 125.36737 100.11264 226.67764 223.07407 226.67764c123.37439 0 223.0282 -101.31027 223.0282 -226.67764c0 -124.9478 -99.65381 -226.67767 -223.0282 -226.67767z" fill-rule="evenodd"/><path fill="#ec641f" d="m443.02997 48.170483l0 0c-146.22318 30.770725 -222.20232 195.8603 -151.49948 329.24673c41.201233 77.76602 118.69449 119.30649 197.05945 119.30649c56.11264 0 112.72995 -21.259766 156.86758 -65.73746l0 0c-14.957214 3.1236877 -30.327454 4.4757385 -45.651733 4.4757385c-90.47757 0 -171.6872 -55.340668 -205.96039 -140.14664c-34.686127 -84.75935 -15.370178 -182.4797 49.18457 -247.14485z" fill-rule="evenodd"/><path fill="#f39777" d="m520.75256 45.466423l15.370178 18.742172c1.7434692 2.2378693 2.2022705 5.3615646 0.87176514 8.019035l-10.093872 24.569954c-0.73413086 1.4919128 -2.0646362 2.2844925 -3.3952026 2.2844925c-1.0093994 0 -2.0187988 -0.41960144 -2.7528687 -1.3986664l-9.680939 -13.846825c-1.1470032 -1.9581375 -3.2575378 -3.2169418 -5.551605 -3.2169418c-0.321167 0 -0.6882019 0.04662323 -1.0093689 0.09324646l-10.552673 0.46621704c-3.486969 0 -7.019806 2.237877 -9.222107 5.3615723l-28.538055 43.685104c-2.6152344 4.056137 -0.4588318 9.3710785 4.4045715 10.303528l13.167877 2.6574707c0.55059814 0.09324646 1.1470337 0.18649292 1.6976013 0.18649292c3.808136 0 7.295105 -2.5176086 8.855072 -5.9676666l6.5610046 -17.856339c1.0093689 -2.8439636 3.532837 -4.5223618 6.1480713 -4.5223618c1.881134 0 3.808136 0.83919525 5.2763367 2.704094l5.6892395 7.599434l-3.0740356 23.637505c-0.41290283 1.8182678 -1.7434692 2.7041016 -3.0740356 3.123703l-29.822723 4.4757385c-1.3305664 0 -2.6611023 0.8858185 -3.532837 1.3520508l-29.868622 22.285461c-3.0740356 2.2378693 -5.2763367 5.8277893 -6.1480713 9.3710785l-2.6152344 12.07518c-0.8258667 3.729782 -3.8999023 6.2940063 -7.478607 6.2940063c-0.27529907 0 -0.59646606 -0.0466156 -0.87176514 -0.0466156l-13.626678 -1.8182678c-0.27529907 0 -0.59646606 -0.04663086 -0.8717346 -0.04663086c-3.2117004 0 -6.1939697 2.0980072 -7.0198364 4.9885864l-7.478607 20.513824c-1.7434998 4.4757385 0.45880127 8.904861 4.8634033 10.256897l17.113647 4.89534c0.7799988 0.27973938 1.605835 0.41960144 2.3858337 0.41960144c3.3493042 0 6.744507 -2.097992 8.16684 -5.3149414l10.965576 -24.52333c1.7434998 -4.0095215 5.2763367 -7.133209 9.222107 -8.48526l18.444214 -5.8277893l24.133484 29.465302l-2.202301 6.713608c-1.7434692 4.429123 0.4588318 8.904861 4.8634033 10.256912c0.8717346 0.41960144 1.7434998 0.41960144 2.6152344 0.41960144c3.0740356 0 6.1480713 -2.2378693 7.478607 -5.3615723l2.202301 -7.133209c1.7434998 -5.361557 0.8717346 -10.676514 -2.6611023 -15.152252l-20.187714 -25.45578l5.2763367 -1.3054199l17.57248 11.142731c3.486969 2.2378693 6.1022034 5.7811584 7.019806 10.256912l3.9457703 19.20839c0.41296387 3.5432892 3.9458008 6.2473907 7.8916016 6.2473907l1.3305054 0c4.3587036 -0.93244934 7.0198364 -5.3615723 6.1480713 -9.371094l-1.7893677 -11.189346c-0.8717041 -3.5433044 1.7893677 -7.133209 5.276367 -7.5528107c3.0740356 -0.88583374 5.276306 -3.123703 5.7351074 -5.8277893l3.4869995 -19.161774c1.2387695 -3.263565 3.8999023 -5.408188 7.0197754 -5.408188c0.321167 0 0.5964966 0 0.9176636 0.04663086l3.9457397 0c0.36706543 0.0932312 0.77996826 0.0932312 1.1470337 0.0932312c1.7893677 0 3.532837 -0.792572 5.0010376 -1.8648834c1.284668 -1.8182678 3.0740356 -2.7041016 5.2304688 -2.7041016l12.296143 1.3520508c2.2022705 0.8858185 4.404602 2.6574707 4.8634033 5.3615723l1.284668 5.361557c0.91760254 4.0095215 -1.7434692 8.019043 -5.68927 8.904861l-34.686096 10.723129c-3.9458008 0.88583374 -5.276367 5.7811737 -2.6152344 8.904861l3.0740356 4.0095215c1.7434692 1.3520508 3.4869385 2.2378693 5.68927 2.2378693l20.187683 -1.7716522c0.27526855 -0.0466156 0.59643555 -0.0466156 0.8717041 -0.0466156c3.5787354 0 6.652771 2.5642242 7.4786377 6.2940063l0.87176514 5.3615723c1.7434692 8.904861 -4.817505 17.809723 -14.039612 18.27594l-38.631958 3.123703c-4.404541 0.46621704 -7.4785767 4.8953247 -6.1480713 9.371063c1.5140991 4.5690002 -2.156372 8.858246 -6.560974 8.858246c-0.73413086 0 -1.4682007 -0.13986206 -2.2481995 -0.37298584l-28.538055 -9.371063c-3.9457703 -1.3520508 -6.5610046 -4.895355 -7.4327393 -8.951477c-0.91763306 -5.3149567 -5.2763367 -9.371094 -11.011475 -9.371094l-27.20752 0.46621704c-10.093842 0.4662323 -19.77475 2.6574707 -28.538055 6.713608l-9.680908 4.429123c-5.2763367 2.2378845 -9.222107 7.5994263 -9.222107 13.380615l-0.41293335 8.065643l-27.253387 32.122772c-2.6152344 2.6574707 -3.9458008 6.247406 -3.9458008 10.256897l0 34.360657c0 6.2473755 2.6611328 12.028564 7.0198364 16.504303l24.592285 24.10373c3.532837 3.543274 8.350372 5.7811584 14.08551 6.2473755l71.98749 6.666992c4.817505 0 7.8915405 4.4757385 7.478607 8.951477l-0.45880127 3.5433044c-0.8717346 5.3615723 1.7893677 11.142731 6.1480713 14.266418l17.57248 13.380615l-2.6152344 8.951477c-1.7893677 6.2473755 0 12.914368 4.8175354 16.97052l18.857117 16.504303c18.444214 -3.1236877 36.475525 -8.951477 53.589172 -16.504303l29.40979 -36.178925c4.404602 -5.7811584 8.350403 -12.028534 11.424438 -18.742157l32.942627 -77.15991c3.4869995 -8.065674 -2.2022705 -17.390106 -10.965576 -17.856354c-9.680908 0 -18.444214 -4.0095215 -24.592285 -11.608948l-32.942627 -39.7222c-5.1845703 -6.200775 0.09173584 -13.427216 6.0562744 -13.427216c2.156433 0 4.3587036 0.9324341 6.239868 3.1703186l32.942627 39.7222c2.6152344 3.1236877 7.0198364 5.3615723 11.37854 5.3615723c4.8634033 0 9.680908 -3.1237183 11.883179 -7.599457l18.857178 -37.90393c1.7893677 -3.5899048 0.8717041 -8.065643 -2.2023315 -10.256912l-5.68927 -3.5899048c-1.7434692 -1.7716522 -2.6151733 -4.475754 -1.3305054 -6.713623l3.0740356 -4.009506c2.798706 -4.8487244 7.845642 -7.366333 13.030212 -7.366333c3.8081665 0 7.708069 1.3986664 10.690308 4.24263l20.646545 20.980026c-0.87176514 -9.3710785 -1.7435303 -18.742157 -3.532898 -27.647018c-16.654846 -96.3683 -92.17517 -170.91737 -187.47028 -185.1838z" fill-rule="evenodd"/><path fill="#f39777" d="m430.73376 128.91931c-4.404602 0 -7.891571 3.5433044 -7.891571 8.019043l0 17.390121l-7.019806 7.133209c-5.2763367 4.9419556 -1.7893677 13.846817 5.230438 13.846817c2.202301 0 4.404602 -0.8858185 5.735138 -2.2378693l9.63504 -9.3710785c1.7893677 -1.3054199 2.6611328 -3.5432892 2.6611328 -5.7811737l-0.4588318 -20.980026c0 -4.4757385 -3.486969 -8.019043 -7.8915405 -8.019043z" fill-rule="evenodd"/><path fill="#ef7945" d="m388.56903 281.046l-27.20752 31.236969c-2.202301 3.1236877 -3.5328674 6.7135925 -3.5328674 10.256897l0 34.360626c0 6.247406 2.6611328 12.4947815 7.0198364 16.97052l24.179352 23.637512c3.9457703 3.5899353 8.763306 5.781189 14.039612 6.713623l72.44632 6.666992c4.817505 0 7.8915405 4.4757385 7.478607 8.951477l-0.45880127 3.5433044c-0.8717346 5.3615723 1.7893677 11.142731 6.1480713 14.266418l17.57248 13.380615l-2.6152344 8.951477c-1.7893677 6.2473755 0 12.914368 4.8175354 16.97052l18.857117 16.504303l0.4588623 0c13.167847 -2.2378845 26.335754 -6.247406 39.0907 -11.189362l3.0740356 -0.88583374c3.0740356 -1.3054199 5.68927 -2.237854 8.350342 -3.5433044l2.6152344 -1.3520203l29.40979 -35.712708c1.3305664 -1.771637 2.6611328 -3.543274 3.532898 -5.3149414l-14.039673 0c-95.75391 0 -180.90927 -62.05429 -211.2367 -154.41309z" fill-rule="evenodd"/></g></svg>