<svg version="1.1" viewBox="0.0 0.0 100.0 100.0" fill="none" stroke="none" stroke-linecap="square" stroke-miterlimit="10" xmlns:xlink="http://www.w3.org/1999/xlink" xmlns="http://www.w3.org/2000/svg"><clipPath id="p.0"><path d="m0 0l100.0 0l0 100.0l-100.0 0l0 -100.0z" clip-rule="nonzero"/></clipPath><g clip-path="url(#p.0)"><path fill="#000000" fill-opacity="0.0" d="m0 0l100.0 0l0 100.0l-100.0 0z" fill-rule="evenodd"/><path fill="#e95b0d" d="m49.634727 -4.209579E-4c-27.276947 0 -49.485264 22.342909 -49.485264 49.785156c0 27.534409 22.208319 49.785164 49.485264 49.785164c27.368546 0 49.475082 -22.250755 49.475082 -49.785164c0 -27.44225 -22.106537 -49.785156 -49.475082 -49.785156z" fill-rule="evenodd"/><path fill="#ec641f" d="m39.59926 1.0849682l0 0c-32.437176 6.758167 -49.291885 43.016754 -33.60764 72.31238c9.1398115 17.079735 26.330395 26.203255 43.714355 26.203255c12.447651 0 25.00726 -4.6692734 34.79846 -14.437897l0 0c-3.318016 0.6860504 -6.7276306 0.9830017 -10.127075 0.9830017c-20.070942 0 -38.085938 -12.154457 -45.68888 -30.780373c-7.69454 -18.615677 -3.4096184 -40.077976 10.91078 -54.280365z" fill-rule="evenodd"/><path fill="#f39777" d="m56.840717 0.4910762l3.4096184 4.116338c0.3867607 0.49150324 0.48854065 1.1775594 0.19338226 1.7612195l-2.2391548 5.3962936c-0.16284561 0.3276682 -0.4580078 0.50174236 -0.75317 0.50174236c-0.2239151 0 -0.4478302 -0.09215641 -0.6106758 -0.307189l-2.1475525 -3.041175c-0.25444794 -0.43006516 -0.72263336 -0.7065363 -1.231533 -0.7065363c-0.071243286 0 -0.152668 0.010239601 -0.2239151 0.020479202l-2.340931 0.102396965c-0.77352524 0 -1.5572281 0.49150276 -2.0457726 1.1775589l-6.3306923 9.594548c-0.580143 0.89085007 -0.10177994 2.0581684 0.9770851 2.2629623l2.921074 0.5836601c0.12213898 0.020479202 0.25445175 0.040958405 0.3765869 0.040958405c0.8447685 0 1.6182938 -0.55294037 1.9643478 -1.3106747l1.4554482 -3.9217854c0.2239151 -0.62461853 0.78370285 -0.9932451 1.3638458 -0.9932451c0.41729736 0 0.84477234 0.18431377 1.1704674 0.5938997l1.2620659 1.6690617l-0.6819229 5.1915016c-0.091602325 0.3993454 -0.3867607 0.5938988 -0.6819229 0.68605614l-6.615677 0.9830055c-0.2951622 0 -0.5903206 0.19455338 -0.78370285 0.2969494l-6.6258545 4.8945503c-0.6819229 0.49150467 -1.1704674 1.2799568 -1.3638496 2.0581703l-0.580143 2.652069c-0.18320465 0.8191719 -0.86512756 1.3823509 -1.659008 1.3823509c-0.06106949 0 -0.13231277 -0.010238647 -0.19338226 -0.010238647l-3.0228539 -0.3993454c-0.06106758 0 -0.13231468 -0.010242462 -0.19338226 -0.010242462c-0.71245766 0 -1.3740253 0.4607849 -1.5572281 1.0956421l-1.659008 4.5054436c-0.38676262 0.98300934 0.10177994 1.9557724 1.0788631 2.2527237l3.796381 1.0751648c0.17302704 0.0614357 0.35622787 0.09215546 0.5292549 0.09215546c0.7429924 0 1.4961624 -0.4607849 1.811676 -1.1673203l2.4325333 -5.386055c0.38676453 -0.8806076 1.1704674 -1.5666656 2.0457726 -1.8636131l4.0915413 -1.2799568l5.353611 6.4714546l-0.48854446 1.4745102c-0.3867607 0.9727669 0.10177994 1.9557724 1.078865 2.2527237c0.19338226 0.09215546 0.38676453 0.09215546 0.580143 0.09215546c0.6819229 0 1.3638496 -0.49150085 1.659008 -1.1775589l0.48854446 -1.5666656c0.3867607 -1.1775589 0.19338226 -2.3448792 -0.5903244 -3.3278847l-4.478302 -5.590847l1.1704636 -0.28670883l3.8981628 2.4472733c0.77352524 0.49150467 1.3536682 1.2697182 1.5572281 2.2527237l0.8753052 4.2187347c0.091602325 0.7782097 0.8753052 1.3721123 1.7506104 1.3721123l0.2951584 0c0.9669075 -0.20479584 1.5572281 -1.1775589 1.3638496 -2.0581703l-0.39694214 -2.4575157c-0.19338226 -0.7782135 0.39694214 -1.5666656 1.1704674 -1.6588211c0.6819229 -0.19455338 1.1704636 -0.68605804 1.2722435 -1.2799568l0.77352524 -4.208496c0.27480698 -0.716774 0.86512756 -1.1877975 1.5572281 -1.1877975c0.0712471 0 0.13231659 0 0.20355988 0.010240555l0.875309 0c0.0814209 0.020479202 0.17301941 0.020479202 0.25444794 0.020479202c0.39694214 0 0.78369904 -0.17407417 1.1093979 -0.40958595c0.28498077 -0.3993473 0.6819229 -0.5938988 1.160286 -0.5938988l2.7276917 0.2969494c0.48854828 0.19455338 0.9770889 0.5836601 1.078865 1.1775589l0.2849884 1.1775589c0.20355988 0.8806114 -0.38676453 1.761219 -1.2620697 1.9557724l-7.694542 2.3551178c-0.8753052 0.19455338 -1.1704674 1.2697182 -0.580143 1.9557724l0.6819229 0.8806114c0.3867607 0.29694748 0.77352524 0.49150085 1.2620659 0.49150085l4.478302 -0.38910675c0.061073303 -0.010238647 0.13231659 -0.010238647 0.19338226 -0.010238647c0.7938843 0 1.4758072 0.56318283 1.6590118 1.3823509l0.19338226 1.1775627c0.38676453 1.9557724 -1.0686874 3.9115448 -3.1144562 4.013939l-8.569847 0.68605804c-0.9770851 0.102394104 -1.659008 1.075161 -1.3638496 2.0581665c0.33587265 1.0034866 -0.47836304 1.9455338 -1.4554482 1.9455338c-0.16284561 0 -0.32569504 -0.030719757 -0.49872208 -0.08191681l-6.3306923 -2.0581703c-0.8753052 -0.29694748 -1.4554482 -1.075161 -1.6488304 -1.966011c-0.20355988 -1.1673203 -1.1704674 -2.0581665 -2.4427109 -2.0581665l-6.035534 0.102394104c-2.239151 0.10239792 -4.3867035 0.5836601 -6.3306923 1.4745102l-2.1475506 0.9727669c-1.1704674 0.49150085 -2.0457726 1.6690598 -2.0457726 2.938778l-0.09160042 1.7714577l-6.0457115 7.0551147c-0.580143 0.5836601 -0.8753052 1.3721161 -0.8753052 2.2527237l0 7.5466194c0 1.3721161 0.5903225 2.6418304 1.5572281 3.6248322l5.455389 5.2938995c0.78370476 0.7782135 1.8523903 1.2697144 3.1246357 1.3721161l15.969227 1.4642639c1.0686874 0 1.7506104 0.98300934 1.659008 1.966011l-0.10177994 0.7782135c-0.19338226 1.1775589 0.39694214 2.447281 1.3638458 3.1333313l3.8981628 2.9387817l-0.580143 1.966011c-0.39694214 1.3721161 0 2.83638 1.0686836 3.727234l4.1831436 3.6248322c4.0915413 -0.68605804 8.091484 -1.966011 11.887863 -3.6248322l6.5240784 -7.9459686c0.9770813 -1.2697144 1.8523865 -2.6418304 2.5343094 -4.116333l7.3077774 -16.946617c0.77352905 -1.7714615 -0.48854065 -3.8193893 -2.4325333 -3.9217834c-2.1475525 0 -4.0915375 -0.8806114 -5.455391 -2.549675l-7.3077774 -8.724178c-1.1501083 -1.3618698 0.020355225 -2.9490166 1.3434906 -2.9490166c0.47837067 0 0.9669113 0.20479202 1.3842087 0.6962967l7.3077774 8.724178c0.58013916 0.6860542 1.5572281 1.1775589 2.5241318 1.1775589c1.078865 0 2.1475525 -0.68605804 2.6360931 -1.6690636l4.1831436 -8.324833c0.39694214 -0.78845215 0.19338226 -1.7714577 -0.48854065 -2.2527199l-1.2620697 -0.78845215c-0.38676453 -0.38910675 -0.58013916 -0.9830055 -0.2951584 -1.4745102l0.6819229 -0.8806114c0.62085724 -1.0649223 1.7404327 -1.6178627 2.890541 -1.6178627c0.84477234 0 1.7098999 0.30718994 2.3714676 0.9318085l4.5800858 4.6078415c-0.19338226 -2.0581703 -0.38676453 -4.1163406 -0.78370667 -6.072113c-3.694603 -21.165346 -20.447533 -37.53854 -41.587162 -40.67187z" fill-rule="evenodd"/><path fill="#f39777" d="m36.871548 18.819815c-0.9770851 0 -1.7506104 0.7782135 -1.7506104 1.761219l0 3.8193874l-1.5572281 1.5666656c-1.1704674 1.0854034 -0.39694214 3.0411758 1.160286 3.0411758c0.48854446 0 0.9770851 -0.19455338 1.2722473 -0.49150276l2.137371 -2.0581703c0.39694214 -0.28670883 0.5903206 -0.7782116 0.5903206 -1.2697144l-0.10177612 -4.6078415c0 -0.9830055 -0.77352905 -1.761219 -1.7506104 -1.761219z" fill-rule="evenodd"/><path fill="#ef7945" d="m27.518002 52.23136l-6.035534 6.860565c-0.48854065 0.6860542 -0.78370285 1.4745064 -0.78370285 2.2527199l0 7.5466194c0 1.3721161 0.5903225 2.7442245 1.5572281 3.727234l5.3637886 5.191498c0.8753052 0.78845215 1.9439907 1.2697144 3.1144562 1.4745102l16.071007 1.4642715c1.0686874 0 1.7506104 0.9830017 1.659008 1.966011l-0.10177994 0.7782135c-0.19338226 1.1775589 0.39694214 2.4472733 1.3638458 3.1333313l3.8981628 2.938774l-0.580143 1.9660187c-0.39694214 1.3721085 0 2.83638 1.0686836 3.7272263l4.1831436 3.6248398l0.10177994 0c2.9210777 -0.49150848 5.8421516 -1.3721161 8.671627 -2.4575195l0.6819229 -0.19454956c0.6819229 -0.28671265 1.2620697 -0.49150848 1.8523865 -0.7782135l0.5801468 -0.2969513l6.5240784 -7.843567c0.2951584 -0.38910675 0.5903168 -0.7782135 0.78369904 -1.1673203l-3.1144562 0c-21.241413 0 -40.131714 -13.628975 -46.85935 -33.91371z" fill-rule="evenodd"/></g></svg>