<svg version="1.1" viewBox="0.0 0.0 100.0 100.0" fill="none" stroke="none" stroke-linecap="square" stroke-miterlimit="10" xmlns:xlink="http://www.w3.org/1999/xlink" xmlns="http://www.w3.org/2000/svg"><clipPath id="p.0"><path d="m0 0l100.0 0l0 100.0l-100.0 0l0 -100.0z" clip-rule="nonzero"/></clipPath><g clip-path="url(#p.0)"><path fill="#000000" fill-opacity="0.0" d="m0 0l100.0 0l0 100.0l-100.0 0z" fill-rule="evenodd"/><path fill="#e95b0d" d="m6.7693996 -9.4244577E-4c-3.7155106 0 -6.7406015 3.089836 -6.7406015 6.884868c0 3.807777 3.0250907 6.884868 6.7406015 6.884868c3.7279873 0 6.739215 -3.0770912 6.739215 -6.884868c0 -3.7950325 -3.0112276 -6.884868 -6.739215 -6.884868z" fill-rule="evenodd"/><path fill="#ec641f" d="m5.402425 0.14915773l0 0c-4.418407 0.9345975 -6.7142596 5.948855 -4.5778413 10.000194c1.2449732 2.3619823 3.5865765 3.6236887 5.954521 3.6236887c1.6955485 0 3.4063468 -0.64572144 4.740049 -1.9966393l0 0c-0.45196152 0.094875336 -0.9164009 0.13594055 -1.3794527 0.13594055c-2.7339501 0 -5.187851 -1.6808586 -6.22348 -4.256666c-1.0481067 -2.5743914 -0.46443892 -5.542446 1.4862039 -7.5065174z" fill-rule="evenodd"/><path fill="#f39777" d="m7.750959 0.06702747l0.46443892 0.5692549c0.052681923 0.06797069 0.06654644 0.1628465 0.026341438 0.24356174l-0.30500507 0.74626195c-0.022181988 0.045313835 -0.062387466 0.06938672 -0.10259247 0.06938672c-0.030500412 0 -0.061000824 -0.012744427 -0.08318281 -0.04248166l-0.2925272 -0.42056882c-0.034659863 -0.05947447 -0.098433495 -0.09770799 -0.16775274 -0.09770799c-0.00970459 0 -0.020795822 0.0014160872 -0.030500412 0.0028321743l-0.31886816 0.014160514c-0.10536528 0 -0.2121172 0.06797075 -0.27866364 0.16284657l-0.8623309 1.3268452c-0.07902384 0.12319708 -0.01386404 0.28462744 0.13309288 0.3129487l0.39789248 0.08071518c0.016636372 0.0028319359 0.034659386 0.00566411 0.051296234 0.00566411c0.115069866 0 0.22043514 -0.07646704 0.26757193 -0.1812551l0.19825315 -0.5423498c0.030500412 -0.08637953 0.10675144 -0.13735747 0.18577528 -0.13735747c0.05684185 0 0.115069866 0.025488853 0.15943432 0.08213115l0.17191172 0.23081732l-0.09288788 0.7179408c-0.012477398 0.055226326 -0.0526824 0.082131386 -0.09288788 0.09487581l-0.90114975 0.1359415c-0.040205 0 -0.08041 0.02690506 -0.10675144 0.041065693l-0.9025364 0.6768749c-0.09288788 0.06797075 -0.15943432 0.1770072 -0.18577528 0.28462744l-0.079024315 0.36675882c-0.024954796 0.11328459 -0.117842674 0.19116783 -0.22598028 0.19116783c-0.008318424 0 -0.018023014 -0.0014162064 -0.026341438 -0.0014162064l-0.41175604 -0.055226326c-0.008318424 0 -0.018023014 -0.0014157295 -0.026341438 -0.0014157295c-0.09704685 0 -0.18716192 0.06372213 -0.21211672 0.15151787l-0.22598076 0.623065c-0.05268264 0.1359415 0.013863802 0.2704668 0.14695644 0.3115325l0.5171218 0.14868593c0.023568153 0.0084962845 0.048523426 0.012744427 0.07209158 0.012744427c0.1012063 0 0.20379877 -0.06372261 0.24677658 -0.16143036l0.33134604 -0.74484587c0.0526824 -0.12178087 0.15943432 -0.21665668 0.27866316 -0.25772238l0.5573268 -0.1770072l0.72923803 0.894948l-0.06654644 0.20391226c-0.0526824 0.1345253 0.01386404 0.2704668 0.14695692 0.3115325c0.026340961 0.012744427 0.0526824 0.012744427 0.07902384 0.012744427c0.09288788 0 0.18577528 -0.06797075 0.22598076 -0.16284657l0.06654644 -0.21665668c0.0526824 -0.16284657 0.026340961 -0.32427692 -0.08041048 -0.46021843l-0.6100092 -0.77316713l0.15943432 -0.039649487l0.53098536 0.33843756c0.10536528 0.06797075 0.18438911 0.17559099 0.21211672 0.3115325l0.11922884 0.5834155c0.012477398 0.10762024 0.11922932 0.18975163 0.23845816 0.18975163l0.04020548 0c0.13170624 -0.028321266 0.21211672 -0.16284657 0.18577528 -0.28462744l-0.054069042 -0.33985376c-0.026341438 -0.10762024 0.054069042 -0.21665668 0.15943384 -0.22940111c0.09288788 -0.02690506 0.15943432 -0.09487581 0.17329884 -0.1770072l0.1053648 -0.5819993c0.03743267 -0.099123955 0.117842674 -0.16426277 0.2121172 -0.16426277c0.00970459 0 0.018022537 0 0.027727127 0.0014162064l0.11922932 0c0.011091232 0.0028324127 0.023568153 0.0028324127 0.034659386 0.0028324127c0.05406952 0 0.10675144 -0.024073124 0.15111637 -0.056642532c0.03881836 -0.055226326 0.09288788 -0.082131386 0.15804768 -0.082131386l0.37155056 0.041065693c0.06654644 0.02690506 0.13309288 0.08071518 0.1469574 0.16284657l0.03881836 0.16284657c0.02772808 0.12178087 -0.052682877 0.24356174 -0.17191124 0.2704668l-1.0481071 0.32569313c-0.11922836 0.02690506 -0.15943432 0.17559099 -0.07902336 0.2704668l0.09288788 0.12178087c0.052681923 0.041065693 0.1053648 0.06797075 0.17191124 0.06797075l0.6100092 -0.05381012c0.008317947 -0.0014162064 0.018022537 -0.0014162064 0.026341438 -0.0014162064c0.108138084 0 0.20102596 0.07788324 0.22598076 0.19116783l0.026341438 0.16284657c0.052681923 0.2704668 -0.14557076 0.5409336 -0.4242344 0.55509424l-1.1673355 0.09487581c-0.13309288 0.014160633 -0.22598028 0.14868593 -0.18577528 0.28462744c0.045750618 0.13877344 -0.065160275 0.2690506 -0.19825315 0.2690506c-0.022181988 0 -0.044363976 -0.0042481422 -0.067932606 -0.01132822l-0.8623314 -0.28462744c-0.11922884 -0.041065693 -0.19825268 -0.14868593 -0.22459412 -0.271883c-0.027727604 -0.16143036 -0.15943432 -0.28462744 -0.3327322 -0.28462744l-0.8221259 0.014160633c-0.3050046 0.014160633 -0.5975318 0.08071518 -0.8623314 0.20391226l-0.2925272 0.1345253c-0.15943408 0.06797075 -0.27866316 0.23081732 -0.27866316 0.4064083l-0.012477398 0.24497795l-0.8235123 0.9756627c-0.07902408 0.08071518 -0.11922908 0.18975163 -0.11922908 0.31153297l0 1.0436335c0 0.18975163 0.08041024 0.3653431 0.21211672 0.5012846l0.7431021 0.73210144c0.10675168 0.10762024 0.2523222 0.17559052 0.42562008 0.18975163l2.1752372 0.20249557c0.14557028 0 0.23845816 0.1359415 0.22598076 0.271883l-0.01386404 0.10762024c-0.026340961 0.16284657 0.054069042 0.33843803 0.18577576 0.43331337l0.53098536 0.4064083l-0.079024315 0.271883c-0.054069042 0.18975163 0 0.39224815 0.14557076 0.51544476l0.5698037 0.50128365c0.5573268 -0.094875336 1.1021762 -0.27188206 1.6192975 -0.50128365l0.8886719 -1.0988598c0.13309288 -0.17559147 0.2523222 -0.3653431 0.34521008 -0.5692549l0.9954243 -2.3435745c0.1053648 -0.24497795 -0.06654644 -0.5281887 -0.3313465 -0.5423498c-0.2925272 0 -0.5573263 -0.121780396 -0.7431021 -0.3525982l-0.9954233 -1.20648c-0.15666199 -0.18833542 0.0027723312 -0.40782452 0.18300247 -0.40782452c0.0651598 0 0.13170624 0.028321266 0.18854809 0.09629202l0.9954243 1.2064805c0.07902336 0.094875336 0.21211624 0.16284657 0.34382343 0.16284657c0.14695644 0 0.2925272 -0.09487629 0.35907364 -0.23081732l0.56980324 -1.1512542c0.05406952 -0.109036446 0.026341438 -0.24497795 -0.06654644 -0.3115325l-0.17191124 -0.109036446c-0.052682877 -0.05381012 -0.079024315 -0.1359415 -0.040205 -0.20391226l0.09288788 -0.12178087c0.08456898 -0.14726973 0.23707104 -0.22373676 0.39373302 -0.22373676c0.11506939 0 0.23291206 0.042481422 0.3230276 0.12886095l0.62387276 0.6372256c-0.026341438 -0.28462744 -0.052682877 -0.5692549 -0.10675144 -0.8397217c-0.50325775 -2.9269893 -2.7852468 -5.191264 -5.664767 -5.6245775z" fill-rule="evenodd"/><path fill="#f39777" d="m5.030872 2.6017375c-0.13309288 0 -0.23845816 0.10762048 -0.23845816 0.24356174l0 0.5281892l-0.21211672 0.21665668c-0.15943432 0.15010214 -0.054069042 0.42056894 0.15804768 0.42056894c0.06654644 0 0.13309288 -0.02690506 0.17329788 -0.06797075l0.29114103 -0.28462744c0.054069042 -0.039649487 0.08041 -0.10762024 0.08041 -0.17559099l-0.013863564 -0.6372256c0 -0.13594127 -0.10536528 -0.24356174 -0.23845816 -0.24356174z" fill-rule="evenodd"/><path fill="#ef7945" d="m3.7567852 7.2222733l-0.82212615 0.94875765c-0.06654644 0.09487629 -0.10675144 0.20391273 -0.10675144 0.31153297l0 1.0436335c0 0.18975163 0.08041024 0.37950325 0.21211672 0.51544476l0.7306247 0.7179413c0.11922908 0.109036446 0.2647996 0.17559052 0.42423344 0.20391178l2.1891012 0.20249653c0.14557028 0 0.23845816 0.1359415 0.22598076 0.271883l-0.01386404 0.10762024c-0.026340961 0.16284657 0.054069042 0.33843708 0.18577576 0.43331337l0.53098536 0.4064083l-0.079024315 0.271883c-0.054069042 0.18975163 0 0.3922472 0.14557076 0.5154438l0.5698037 0.5012846l0.01386404 0c0.397892 -0.06797123 0.79578495 -0.18975163 1.1811991 -0.3398533l0.09288788 -0.02690506c0.09288788 -0.039649963 0.1719122 -0.06797123 0.2523222 -0.10762119l0.079024315 -0.041065216l0.8886719 -1.0846996c0.040205 -0.05381012 0.08041096 -0.10762024 0.10675144 -0.16143036l-0.42423344 0c-2.8933845 0 -5.4665136 -1.8847713 -6.3829136 -4.68998z" fill-rule="evenodd"/></g></svg>