<svg version="1.1" viewBox="0.0 0.0 449.56955380577426 454.96325459317586" fill="none" stroke="none" stroke-linecap="square" stroke-miterlimit="10" xmlns:xlink="http://www.w3.org/1999/xlink" xmlns="http://www.w3.org/2000/svg"><clipPath id="p.0"><path d="m0 0l449.56955 0l0 454.96326l-449.56955 0l0 -454.96326z" clip-rule="nonzero"/></clipPath><g clip-path="url(#p.0)"><path fill="#000000" fill-opacity="0.0" d="m0 0l449.56955 0l0 454.96326l-449.56955 0z" fill-rule="evenodd"/><path fill="#e95b0d" d="m225.35536 2.3397313E-4c-122.96143 0 -223.07407 101.72987 -223.07407 226.67766c0 125.36737 100.112625 226.67764 223.07407 226.67764c123.374374 0 223.02818 -101.31027 223.02818 -226.67764c0 -124.94778 -99.65381 -226.67766 -223.02818 -226.67766z" fill-rule="evenodd"/><path fill="#ec641f" d="m180.1166 4.9421377l0 0c-146.22318 30.770721 -222.20233 195.8603 -151.49951 329.24673c41.201256 77.76599 118.69448 119.30649 197.05945 119.30649c56.11264 0 112.72995 -21.259796 156.86758 -65.73746l0 0c-14.957245 3.1236877 -30.327423 4.4757385 -45.651703 4.4757385c-90.4776 0 -171.68721 -55.340668 -205.96042 -140.14665c-34.686127 -84.75935 -15.370171 -182.4797 49.184586 -247.14485z" fill-rule="evenodd"/><path fill="#f39777" d="m257.83917 2.238078l15.370178 18.742168c1.7434692 2.2378712 2.202301 5.3615646 0.8717346 8.019037l-10.093842 24.569954c-0.73410034 1.4919128 -2.0646667 2.2844925 -3.3952026 2.2844925c-1.0093994 0 -2.0187683 -0.41959763 -2.7528687 -1.3986664l-9.680923 -13.846828c-1.1470184 -1.9581337 -3.257553 -3.216938 -5.5516205 -3.216938c-0.321167 0 -0.68821716 0.04662323 -1.0093842 0.09324646l-10.552658 0.46622086c-3.486969 0 -7.019806 2.237873 -9.222107 5.3615646l-28.538055 43.6851c-2.6152344 4.0561447 -0.45881653 9.371086 4.404587 10.303535l13.167877 2.6574707c0.5505829 0.09323883 1.1470337 0.18648529 1.6976013 0.18648529c3.808136 0 7.295105 -2.517601 8.855057 -5.9676514l6.5610046 -17.856346c1.0093842 -2.8439636 3.5328522 -4.5223618 6.1480713 -4.5223618c1.881134 0 3.808136 0.8392029 5.2763367 2.704094l5.6892548 7.599434l-3.0740356 23.637512c-0.41293335 1.8182678 -1.7434845 2.704094 -3.0740356 3.1236954l-29.822739 4.4757385c-1.3305511 0 -2.6611023 0.8858261 -3.532837 1.3520432l-29.868622 22.28547c-3.0740356 2.2378693 -5.2763367 5.8277893 -6.1480713 9.3710785l-2.615219 12.07518c-0.8258667 3.729782 -3.8999023 6.2940063 -7.4786224 6.2940063c-0.27529907 0 -0.59646606 -0.0466156 -0.8717499 -0.0466156l-13.626694 -1.8182678c-0.2752838 0 -0.5964508 -0.04663086 -0.8717346 -0.04663086c-3.2116852 0 -6.1939545 2.0980072 -7.019821 4.9885864l-7.4786224 20.513824c-1.7434845 4.4757385 0.45881653 8.904861 4.8634033 10.256897l17.113663 4.89534c0.77996826 0.27973938 1.605835 0.41960144 2.3858185 0.41960144c3.3493195 0 6.744522 -2.097992 8.16684 -5.3149414l10.965591 -24.52333c1.7434845 -4.0095215 5.2763214 -7.133209 9.222107 -8.48526l18.444214 -5.8277893l24.133469 29.465302l-2.2022858 6.713608c-1.7434845 4.429123 0.45880127 8.904861 4.863388 10.256912c0.8717499 0.41960144 1.7434845 0.41960144 2.6152344 0.41960144c3.0740356 0 6.1480713 -2.2378693 7.4786224 -5.3615723l2.202301 -7.133209c1.7434692 -5.361557 0.8717346 -10.676498 -2.6611176 -15.152252l-20.187698 -25.45578l5.2763367 -1.3054199l17.57248 11.142731c3.4869537 2.2378693 6.102188 5.7811737 7.019806 10.256912l3.9457703 19.20839c0.41293335 3.5432892 3.9457855 6.2473907 7.891556 6.2473907l1.3305664 0c4.3587036 -0.93244934 7.019806 -5.3615723 6.1480713 -9.371094l-1.7893677 -11.189346c-0.8717346 -3.5432892 1.7893677 -7.133209 5.2763367 -7.5528107c3.0740356 -0.88583374 5.276306 -3.123703 5.735138 -5.8277893l3.486969 -19.161774c1.2387695 -3.263565 3.8998718 -5.408188 7.019806 -5.408188c0.321167 0 0.59646606 0 0.91763306 0.04663086l3.9457703 0c0.3670349 0.09324646 0.77996826 0.09324646 1.1470337 0.09324646c1.7893677 0 3.532837 -0.7925873 5.0010376 -1.8648987c1.284668 -1.8182678 3.0740356 -2.7041016 5.230438 -2.7041016l12.296143 1.3520508c2.202301 0.88583374 4.404602 2.6574707 4.8634033 5.3615723l1.284668 5.361557c0.91763306 4.0095215 -1.7434692 8.019043 -5.6892395 8.904861l-34.686157 10.723129c-3.9457703 0.88583374 -5.2763367 5.7811737 -2.6152039 8.904861l3.0740356 4.0095215c1.7434692 1.3520508 3.4869385 2.2378693 5.6892395 2.2378693l20.187714 -1.7716522c0.27526855 -0.0466156 0.59643555 -0.0466156 0.8717346 -0.0466156c3.5787354 0 6.652771 2.5642242 7.4786377 6.2940063l0.8717346 5.3615723c1.7434692 8.904861 -4.8175354 17.809723 -14.039642 18.27594l-38.631897 3.123703c-4.404602 0.46621704 -7.4786377 4.89534 -6.1480713 9.3710785c1.5140686 4.568985 -2.1564178 8.858231 -6.5610046 8.858231c-0.73410034 0 -1.4682007 -0.13986206 -2.2481842 -0.37297058l-28.538055 -9.3710785c-3.9457855 -1.3520508 -6.5610046 -4.895355 -7.4327545 -8.951492c-0.9176178 -5.3149414 -5.2763214 -9.3710785 -11.011459 -9.3710785l-27.20752 0.46621704c-10.093842 0.4662323 -19.774765 2.6574707 -28.538055 6.713623l-9.680923 4.4291077c-5.2763367 2.2378693 -9.222107 7.5994415 -9.222107 13.3806l-0.41293335 8.065659l-27.253387 32.122787c-2.6152267 2.6574707 -3.945778 6.2473755 -3.945778 10.256897l0 34.360626c0 6.247406 2.6611023 12.028564 7.0198135 16.504303l24.592285 24.10373c3.5328522 3.5433044 8.350357 5.781189 14.08551 6.247406l71.98749 6.666992c4.81752 0 7.891556 4.4757385 7.4786224 8.951477l-0.45880127 3.5433044c-0.8717499 5.3615417 1.7893524 11.142731 6.1480713 14.266418l17.572464 13.380585l-2.615219 8.951508c-1.7893677 6.2473755 0 12.914368 4.81752 16.97052l18.857147 16.504272c18.444214 -3.1236877 36.475494 -8.951477 53.589172 -16.504272l29.40979 -36.178925c4.404602 -5.7811584 8.350372 -12.028564 11.424408 -18.742157l32.942657 -77.15991c3.486969 -8.065674 -2.202301 -17.390137 -10.965607 -17.856354c-9.680908 0 -18.444214 -4.0095215 -24.592285 -11.608948l-32.942657 -39.722214c-5.1845703 -6.200775 0.09176636 -13.427231 6.056305 -13.427231c2.156433 0 4.358734 0.93244934 6.2398376 3.1703186l32.942657 39.7222c2.6152344 3.1237183 7.019806 5.3615723 11.37854 5.3615723c4.863373 0 9.680908 -3.1236877 11.883209 -7.5994263l18.857147 -37.903946c1.7893372 -3.58992 0.8717346 -8.065659 -2.202301 -10.256897l-5.68927 -3.58992c-1.7434692 -1.7716522 -2.6152344 -4.475754 -1.3305359 -6.713623l3.0740356 -4.009506c2.7987366 -4.8487244 7.8456726 -7.366333 13.030243 -7.366333c3.8081055 0 7.708008 1.3986664 10.690277 4.24263l20.646515 20.980042c-0.8717346 -9.3710785 -1.7434692 -18.742172 -3.532837 -27.647034c-16.654846 -96.3683 -92.1752 -170.91737 -187.4703 -185.18379z" fill-rule="evenodd"/><path fill="#f39777" d="m167.82037 85.69096c-4.404587 0 -7.891556 3.5432968 -7.891556 8.019043l0 17.390114l-7.019821 7.133217c-5.2763214 4.941963 -1.7893524 13.846832 5.2304535 13.846832c2.202301 0 4.404587 -0.88583374 5.735138 -2.2378845l9.63504 -9.3710785c1.7893677 -1.3054199 2.6611023 -3.5432968 2.6611023 -5.781166l-0.45880127 -20.980034c0 -4.475746 -3.486969 -8.019043 -7.891556 -8.019043z" fill-rule="evenodd"/><path fill="#ef7945" d="m125.65563 237.81766l-27.207512 31.236938c-2.2022934 3.1236877 -3.5328445 6.713623 -3.5328445 10.2569275l0 34.360626c0 6.2473755 2.6611023 12.4947815 7.0198135 16.97052l24.179352 23.637512c3.9457855 3.5899048 8.76329 5.7811584 14.039627 6.713623l72.446304 6.6669617c4.81752 0 7.891556 4.475769 7.4786224 8.951508l-0.45880127 3.543274c-0.8717499 5.3615723 1.7893524 11.142731 6.1480713 14.266449l17.572464 13.380585l-2.615219 8.951477c-1.7893677 6.247406 0 12.914398 4.81752 16.97052l18.857147 16.504303l0.45880127 0c13.167877 -2.237854 26.335785 -6.2473755 39.09073 -11.189362l3.0740356 -0.8858032c3.0740356 -1.3054199 5.68927 -2.2378845 8.350372 -3.5433044l2.6152344 -1.3520508l29.40979 -35.712677c1.3305664 -1.7716675 2.6611023 -3.5433044 3.532837 -5.3149414l-14.039612 0c-95.75392 0 -180.9093 -62.05429 -211.23672 -154.41309z" fill-rule="evenodd"/></g></svg>